  0
SECTION
  2
HEADER
  9
$ACADVER
  1
AC1009
  9
$INSUNITS
 70
     5
 9
$MEASUREMENT
 70
    1
  0
ENDSEC
  0
SECTION
  2
TABLES
  0
TABLE
  2
LAYER
 70
     8
  0
LAYER
  2
0
 62
     7
 70
0
  6
CONTINUOUS
  0
LAYER
  2
1
 62
     1
 70
0
  6
CONTINUOUS
  0
LAYER
  2
2
 62
     2
 70
0
  6
CONTINUOUS
  0
LAYER
  2
3
 62
     3
 70
0
  6
CONTINUOUS
  0
LAYER
  2
4
 62
     4
 70
0
  6
CONTINUOUS
  0
LAYER
  2
5
 62
     5
 70
0
  6
CONTINUOUS
  0
LAYER
  2
6
 62
     6
 70
0
  6
CONTINUOUS
  0
LAYER
  2
7
 62
     7
 70
0
  6
CONTINUOUS
  0
ENDTAB
  0
TABLE
  2
STYLE
 70
     1
  0
STYLE
 70
     0
  2
STANDARD
  3
TXT
 40
0.00
 41
1.00
 42
1.00
 50
0.00
 71
     0
  0
ENDTAB
  0
ENDSEC
  0
SECTION
  2
BLOCKS
  0
BLOCK
  8
0
  2
EPAD
 70
0
 10
0.0
 20
0.0
  0
POLYLINE
  8
0
 66
1
 70
1
 40
0.5
 41
0.5
  0
VERTEX
  8
0
 10
-0.25
 20
0.0
 42
1.0
  0
VERTEX
  8
0
 10
0.25
 20
0.0
 42
1.0
  0
SEQEND
  8
0
  0
ENDBLK
  8
0
  0
BLOCK
  8
0
  2
RPAD
 70
0
 10
0.0
 20
0.0
  0
TRACE
  8
0
 10
-0.5
 20
-0.5
 11
-0.5
 21
0.5
 12
0.5
 22
-0.5
 13
0.5
 23
0.5
  0
ENDBLK
  8
0
  0
ENDSEC
0
SECTION
2
ENTITIES
0
INSERT
8
1
2
EPAD
10
1.671993
20
-0.929346
41
0.050000
42
0.050000
0
CIRCLE
8
0
10
1.671993
20
-0.929346
40
0.025400
0
INSERT
8
1
2
EPAD
10
2.218245
20
-1.388477
41
0.050000
42
0.050000
0
CIRCLE
8
0
10
2.218245
20
-1.388477
40
0.025400
0
INSERT
8
1
2
EPAD
10
2.217420
20
-1.435100
41
0.050000
42
0.050000
0
CIRCLE
8
0
10
2.217420
20
-1.435100
40
0.025400
0
INSERT
8
1
2
EPAD
10
0.088900
20
-1.625600
41
0.050000
42
0.050000
0
CIRCLE
8
0
10
0.088900
20
-1.625600
40
0.025400
0
INSERT
8
1
2
EPAD
10
1.079500
20
-1.549400
41
0.050000
42
0.050000
0
CIRCLE
8
0
10
1.079500
20
-1.549400
40
0.025400
0
INSERT
8
1
2
EPAD
10
1.838960
20
-1.023620
41
0.050000
42
0.050000
0
CIRCLE
8
0
10
1.838960
20
-1.023620
40
0.025400
0
INSERT
8
1
2
EPAD
10
0.730749
20
-0.939800
41
0.050000
42
0.050000
0
CIRCLE
8
0
10
0.730749
20
-0.939800
40
0.025400
0
INSERT
8
1
2
EPAD
10
0.767080
20
-0.736600
41
0.050000
42
0.050000
0
CIRCLE
8
0
10
0.767080
20
-0.736600
40
0.025400
0
INSERT
8
1
2
EPAD
10
0.733748
20
-0.593232
41
0.050000
42
0.050000
0
CIRCLE
8
0
10
0.733748
20
-0.593232
40
0.025400
0
INSERT
8
1
2
EPAD
10
0.798204
20
-0.592263
41
0.050000
42
0.050000
0
CIRCLE
8
0
10
0.798204
20
-0.592263
40
0.025400
0
INSERT
8
1
2
EPAD
10
0.768600
20
-1.299499
41
0.050000
42
0.050000
0
CIRCLE
8
0
10
0.768600
20
-1.299499
40
0.025400
0
INSERT
8
1
2
EPAD
10
1.919929
20
-1.219200
41
0.050000
42
0.050000
0
CIRCLE
8
0
10
1.919929
20
-1.219200
40
0.025400
0
INSERT
8
1
2
EPAD
10
2.181165
20
-1.616048
41
0.050000
42
0.050000
0
CIRCLE
8
0
10
2.181165
20
-1.616048
40
0.025400
0
INSERT
8
1
2
EPAD
10
0.762349
20
-1.816207
41
0.050000
42
0.050000
0
CIRCLE
8
0
10
0.762349
20
-1.816207
40
0.025400
0
INSERT
8
1
2
EPAD
10
1.082040
20
-1.795780
41
0.050000
42
0.050000
0
CIRCLE
8
0
10
1.082040
20
-1.795780
40
0.025400
0
INSERT
8
1
2
EPAD
10
0.802640
20
-1.610360
41
0.050000
42
0.050000
0
CIRCLE
8
0
10
0.802640
20
-1.610360
40
0.025400
0
INSERT
8
1
2
EPAD
10
1.076960
20
-1.668780
41
0.050000
42
0.050000
0
CIRCLE
8
0
10
1.076960
20
-1.668780
40
0.025400
0
INSERT
8
1
2
EPAD
10
2.352409
20
-1.645141
41
0.050000
42
0.050000
0
CIRCLE
8
0
10
2.352409
20
-1.645141
40
0.025400
0
INSERT
8
1
2
EPAD
10
2.791759
20
-1.373648
41
0.050000
42
0.050000
0
CIRCLE
8
0
10
2.791759
20
-1.373648
40
0.025400
0
INSERT
8
1
2
EPAD
10
2.968759
20
-1.373648
41
0.050000
42
0.050000
0
CIRCLE
8
0
10
2.968759
20
-1.373648
40
0.025400
0
INSERT
8
1
2
EPAD
10
0.136759
20
-0.760504
41
0.050000
42
0.050000
0
CIRCLE
8
0
10
0.136759
20
-0.760504
40
0.025400
0
INSERT
8
1
2
EPAD
10
1.755159
20
-0.757964
41
0.050000
42
0.050000
0
CIRCLE
8
0
10
1.755159
20
-0.757964
40
0.025400
0
INSERT
8
1
2
EPAD
10
0.278599
20
-0.604678
41
0.050000
42
0.050000
0
CIRCLE
8
0
10
0.278599
20
-0.604678
40
0.025400
0
INSERT
8
1
2
EPAD
10
3.067419
20
-0.556418
41
0.050000
42
0.050000
0
CIRCLE
8
0
10
3.067419
20
-0.556418
40
0.025400
0
INSERT
8
1
2
EPAD
10
0.103739
20
-0.453932
41
0.050000
42
0.050000
0
CIRCLE
8
0
10
0.103739
20
-0.453932
40
0.025400
0
INSERT
8
1
2
EPAD
10
0.313759
20
-0.453932
41
0.050000
42
0.050000
0
CIRCLE
8
0
10
0.313759
20
-0.453932
40
0.025400
0
INSERT
8
1
2
EPAD
10
0.536479
20
-0.446312
41
0.050000
42
0.050000
0
CIRCLE
8
0
10
0.536479
20
-0.446312
40
0.025400
0
INSERT
8
1
2
EPAD
10
0.326859
20
-0.295566
41
0.050000
42
0.050000
0
CIRCLE
8
0
10
0.326859
20
-0.295566
40
0.025400
0
INSERT
8
1
2
EPAD
10
2.294246
20
-1.083262
41
0.050000
42
0.050000
0
CIRCLE
8
0
10
2.294246
20
-1.083262
40
0.025400
0
INSERT
8
2
2
EPAD
10
2.743000
20
-1.959500
41
0.177800
42
0.177800
0
CIRCLE
8
0
10
2.743000
20
-1.959500
40
0.025400
0
INSERT
8
2
2
EPAD
10
2.489000
20
-1.959500
41
0.177800
42
0.177800
0
CIRCLE
8
0
10
2.489000
20
-1.959500
40
0.025400
0
INSERT
8
2
2
EPAD
10
2.235000
20
-1.959500
41
0.177800
42
0.177800
0
CIRCLE
8
0
10
2.235000
20
-1.959500
40
0.025400
0
INSERT
8
2
2
EPAD
10
1.981000
20
-1.959500
41
0.177800
42
0.177800
0
CIRCLE
8
0
10
1.981000
20
-1.959500
40
0.025400
0
INSERT
8
2
2
EPAD
10
1.727000
20
-1.959500
41
0.177800
42
0.177800
0
CIRCLE
8
0
10
1.727000
20
-1.959500
40
0.025400
0
INSERT
8
2
2
EPAD
10
1.473000
20
-1.959500
41
0.177800
42
0.177800
0
CIRCLE
8
0
10
1.473000
20
-1.959500
40
0.025400
0
INSERT
8
2
2
EPAD
10
1.219000
20
-1.959500
41
0.177800
42
0.177800
0
CIRCLE
8
0
10
1.219000
20
-1.959500
40
0.025400
0
INSERT
8
2
2
EPAD
10
0.965000
20
-1.959500
41
0.177800
42
0.177800
0
CIRCLE
8
0
10
0.965000
20
-1.959500
40
0.025400
0
INSERT
8
2
2
EPAD
10
0.711000
20
-1.959500
41
0.177800
42
0.177800
0
CIRCLE
8
0
10
0.711000
20
-1.959500
40
0.025400
0
INSERT
8
2
2
EPAD
10
0.457000
20
-1.959500
41
0.177800
42
0.177800
0
CIRCLE
8
0
10
0.457000
20
-1.959500
40
0.025400
0
INSERT
8
2
2
EPAD
10
2.997000
20
-0.138500
41
0.177800
42
0.177800
0
CIRCLE
8
0
10
2.997000
20
-0.138500
40
0.025400
0
INSERT
8
2
2
EPAD
10
2.743000
20
-0.138500
41
0.177800
42
0.177800
0
CIRCLE
8
0
10
2.743000
20
-0.138500
40
0.025400
0
INSERT
8
2
2
EPAD
10
2.489000
20
-0.138500
41
0.177800
42
0.177800
0
CIRCLE
8
0
10
2.489000
20
-0.138500
40
0.025400
0
INSERT
8
2
2
EPAD
10
2.235000
20
-0.138500
41
0.177800
42
0.177800
0
CIRCLE
8
0
10
2.235000
20
-0.138500
40
0.025400
0
INSERT
8
2
2
EPAD
10
1.981000
20
-0.138500
41
0.177800
42
0.177800
0
CIRCLE
8
0
10
1.981000
20
-0.138500
40
0.025400
0
INSERT
8
2
2
EPAD
10
1.727000
20
-0.138500
41
0.177800
42
0.177800
0
CIRCLE
8
0
10
1.727000
20
-0.138500
40
0.025400
0
INSERT
8
2
2
EPAD
10
1.473000
20
-0.138500
41
0.177800
42
0.177800
0
CIRCLE
8
0
10
1.473000
20
-0.138500
40
0.025400
0
INSERT
8
2
2
EPAD
10
1.219000
20
-0.138500
41
0.177800
42
0.177800
0
CIRCLE
8
0
10
1.219000
20
-0.138500
40
0.025400
0
INSERT
8
2
2
EPAD
10
0.965000
20
-0.138500
41
0.177800
42
0.177800
0
CIRCLE
8
0
10
0.965000
20
-0.138500
40
0.025400
0
INSERT
8
2
2
EPAD
10
0.711000
20
-0.138500
41
0.177800
42
0.177800
0
CIRCLE
8
0
10
0.711000
20
-0.138500
40
0.025400
0
INSERT
8
2
2
EPAD
10
0.457000
20
-0.138500
41
0.177800
42
0.177800
0
CIRCLE
8
0
10
0.457000
20
-0.138500
40
0.025400
0
INSERT
8
2
2
EPAD
10
0.203000
20
-0.138500
41
0.177800
42
0.177800
0
CIRCLE
8
0
10
0.203000
20
-0.138500
40
0.025400
0
INSERT
8
2
2
EPAD
10
0.275000
20
-1.050000
41
0.300000
42
0.300000
0
CIRCLE
8
0
10
0.275000
20
-1.050000
40
0.025400
0
INSERT
8
2
2
EPAD
10
2.925000
20
-1.050000
41
0.300000
42
0.300000
0
CIRCLE
8
0
10
2.925000
20
-1.050000
40
0.025400
0
POLYLINE
8
3
66
1
40
0.020320
41
0.020320
0
VERTEX
8
3
10
0.250000
20
0.000000
0
VERTEX
8
3
10
0.198883
20
-0.004974
0
VERTEX
8
3
10
0.151611
20
-0.019287
0
VERTEX
8
3
10
0.109100
20
-0.042023
0
VERTEX
8
3
10
0.072266
20
-0.072266
0
VERTEX
8
3
10
0.042023
20
-0.109100
0
VERTEX
8
3
10
0.019287
20
-0.151611
0
VERTEX
8
3
10
0.004974
20
-0.198883
0
VERTEX
8
3
10
0.000000
20
-0.250000
0
SEQEND
8
3
0
POLYLINE
8
3
66
1
40
0.020320
41
0.020320
0
VERTEX
8
3
10
2.950000
20
0.000000
0
VERTEX
8
3
10
3.001117
20
-0.004974
0
VERTEX
8
3
10
3.048389
20
-0.019287
0
VERTEX
8
3
10
3.090900
20
-0.042023
0
VERTEX
8
3
10
3.127734
20
-0.072266
0
VERTEX
8
3
10
3.157977
20
-0.109100
0
VERTEX
8
3
10
3.180713
20
-0.151611
0
VERTEX
8
3
10
3.195026
20
-0.198883
0
VERTEX
8
3
10
3.200000
20
-0.250000
0
SEQEND
8
3
0
POLYLINE
8
3
66
1
40
0.020320
41
0.020320
0
VERTEX
8
3
10
0.000000
20
-1.850000
0
VERTEX
8
3
10
0.004974
20
-1.901117
0
VERTEX
8
3
10
0.019287
20
-1.948389
0
VERTEX
8
3
10
0.042023
20
-1.990900
0
VERTEX
8
3
10
0.072266
20
-2.027734
0
VERTEX
8
3
10
0.109100
20
-2.057977
0
VERTEX
8
3
10
0.151611
20
-2.080713
0
VERTEX
8
3
10
0.198883
20
-2.095026
0
VERTEX
8
3
10
0.250000
20
-2.100000
0
SEQEND
8
3
0
POLYLINE
8
3
66
1
40
0.020320
41
0.020320
0
VERTEX
8
3
10
3.200000
20
-1.850000
0
VERTEX
8
3
10
3.195026
20
-1.901117
0
VERTEX
8
3
10
3.180713
20
-1.948389
0
VERTEX
8
3
10
3.157977
20
-1.990900
0
VERTEX
8
3
10
3.127734
20
-2.027734
0
VERTEX
8
3
10
3.090900
20
-2.057977
0
VERTEX
8
3
10
3.048389
20
-2.080713
0
VERTEX
8
3
10
3.001117
20
-2.095026
0
VERTEX
8
3
10
2.950000
20
-2.100000
0
VERTEX
8
3
10
0.250000
20
-2.100000
0
SEQEND
8
3
0
POLYLINE
8
3
66
1
40
0.020320
41
0.020320
0
VERTEX
8
3
10
0.000000
20
-1.850000
0
VERTEX
8
3
10
0.000000
20
-0.250000
0
SEQEND
8
3
0
POLYLINE
8
3
66
1
40
0.020320
41
0.020320
0
VERTEX
8
3
10
0.250000
20
0.000000
0
VERTEX
8
3
10
2.950000
20
0.000000
0
SEQEND
8
3
0
POLYLINE
8
3
66
1
40
0.020320
41
0.020320
0
VERTEX
8
3
10
3.200000
20
-0.250000
0
VERTEX
8
3
10
3.200000
20
-1.850000
0
SEQEND
8
3
0
ENDSEC
0
EOF

